<svg xmlns="http://www.w3.org/2000/svg" viewBox="0 0 320 80" width="320" height="80">
  <!-- Monochrome Dark version -->
  <g id="icon-mono-dark" transform="translate(10, 10)">
    <path d="M30,5 Q45,5 45,20 L45,35 Q45,50 30,50 L15,50 L5,58 L8,50 Q0,50 0,35 L0,20 Q0,5 15,5 Z" 
          fill="#1F2937" />
    <path d="M52,0 Q62,0 62,10 L62,20 Q62,30 52,30 L48,30 L45,34 L46,30 Q40,30 40,20 L40,10 Q40,0 50,0 Z" 
          fill="#1F2937" opacity="0.8" />
    <circle cx="58" cy="42" r="8" fill="#1F2937" opacity="0.7" />
    <circle cx="22" cy="28" r="2.5" fill="#FFFFFF" />
    <circle cx="52" cy="15" r="2" fill="#FFFFFF" />
    <circle cx="58" cy="42" r="1.5" fill="#FFFFFF" />
    <line x1="24" y1="28" x2="50" y2="15" stroke="#FFFFFF" stroke-width="1" opacity="0.5" />
    <line x1="24" y1="28" x2="56" y2="42" stroke="#FFFFFF" stroke-width="1" opacity="0.5" />
    <line x1="52" y1="17" x2="56" y2="40" stroke="#FFFFFF" stroke-width="1" opacity="0.5" />
  </g>
  
  <text x="85" y="48" 
        font-family="'Inter', 'Segoe UI', system-ui, sans-serif" 
        font-size="36" 
        font-weight="700" 
        fill="#1F2937"
        letter-spacing="-0.5">
    PolyChat
  </text>
  <text x="85" y="68" 
        font-family="'Inter', 'Segoe UI', system-ui, sans-serif" 
        font-size="14" 
        font-weight="500" 
        fill="#1F2937"
        letter-spacing="3">
    AI
  </text>
</svg>